<svg xmlns="http://www.w3.org/2000/svg" width="64" height="32" viewBox="0 0 64 32" fill="none" xmlns:c2pa="http://c2pa.org/manifest"><metadata><c2pa:manifest>AAAWgmp1bWIAAAAeanVtZGMycGEAEQAQgAAAqgA4m3EDYzJwYQAAABZcanVtYgAAAEdqdW1kYzJtYQARABCAAACqADibcQN1cm46YzJwYTowZDA2YmNmYS1hODBhLTRiZGQtOTZjMS01MWQ4MzA1NWI2MjcAAAADl2p1bWIAAAApanVtZGMyYXMAEQAQgAAAqgA4m3EDYzJwYS5hc3NlcnRpb25zAAAAALxqdW1iAAAARGp1bWRjYm9yABEAEIAAAKoAOJtxE2MycGEuaW5ncmVkaWVudC52MwAAAAAYYzJzaM0DTvPojAJTAS40tqfFJYkAAABwY2JvcqNpZGM6Zm9ybWF0bWltYWdlL3N2Zyt4bWxqaW5zdGFuY2VJRHgseG1wOmlpZDo4NzFhNGZlOC05ZWQ0LTQwYzgtYmZmNy1iMjYyMzc5NjUxYzFscmVsYXRpb25zaGlwaHBhcmVudE9mAAAB4mp1bWIAAABBanVtZGNib3IAEQAQgAAAqgA4m3ETYzJwYS5hY3Rpb25zLnYyAAAAABhjMnNoEMxgBURNGZ/sZknHqBcH2wAAAZljYm9yomdhY3Rpb25zgqJmYWN0aW9ua2MycGEub3BlbmVkanBhcmFtZXRlcnOha2luZ3JlZGllbnRzgaJjdXJseC1zZWxmI2p1bWJmPWMycGEuYXNzZXJ0aW9ucy9jMnBhLmluZ3JlZGllbnQudjNkaGFzaFgg9yNLUfl1++aUEaKLm6y3h+xNPkGb/TlO0p39Xwco7oOkZmFjdGlvbngdY29tLmFudGhyb3BpYy5jbGF1ZGUucHJvdmlkZWRqcGFyYW1ldGVyc6F4H2NvbS5hbnRocm9waWMub3JpZ2luLWNvbmZpZGVuY2VndW5rbm93bmtkZXNjcmlwdGlvbnhmQ2xhdWRlIHByb3ZpZGVkIHRoaXMgZmlsZSBhdCB0aGUgcmVxdWVzdCBvZiBhIHVzZXIgYW5kIG1heSBoYXZlIGNyZWF0ZWQgb3IgbW9kaWZpZWQgdGhlIGZpbGUgY29udGVudHMubXNvZnR3YXJlQWdlbnShZG5hbWVmQ2xhdWRlcmFsbEFjdGlvbnNJbmNsdWRlZPUAAADIanVtYgAAAEBqdW1kY2JvcgARABCAAACqADibcRNjMnBhLmhhc2guZGF0YQAAAAAYYzJzaOYyj7iBIaD0s1LvVuN20j8AAACAY2JvcqVjYWxnZnNoYTI1NmNwYWRNAAAAAAAAAAAAAAAAAGRoYXNoWCDbnD5Ys5iyThYQWmLRcmTv2ZpTOw1/CL4vftiEoC+f4mRuYW1lbmp1bWJmIG1hbmlmZXN0amV4Y2x1c2lvbnOBomVzdGFydBieZmxlbmd0aBkeBAAAAj5qdW1iAAAAJ2p1bWRjMmNsABEAEIAAAKoAOJtxA2MycGEuY2xhaW0udjIAAAACD2Nib3KlY2FsZ2ZzaGEyNTZpc2lnbmF0dXJleE1zZWxmI2p1bWJmPS9jMnBhL3VybjpjMnBhOjBkMDZiY2ZhLWE4MGEtNGJkZC05NmMxLTUxZDgzMDU1YjYyNy9jMnBhLnNpZ25hdHVyZWppbnN0YW5jZUlEeCx4bXA6aWlkOmUyZmI5YzI4LTkzMmEtNGJhNy05YjIwLTZhMTQ4MzFjMzlmNHJjcmVhdGVkX2Fzc2VydGlvbnODomN1cmx4LXNlbGYjanVtYmY9YzJwYS5hc3NlcnRpb25zL2MycGEuaW5ncmVkaWVudC52M2RoYXNoWCD3I0tR+XX75pQRooubrLeH7E0+QZv9OU7Snf1fByjug6JjdXJseCpzZWxmI2p1bWJmPWMycGEuYXNzZXJ0aW9ucy9jMnBhLmFjdGlvbnMudjJkaGFzaFggLF6AFyFbtekS6W+zkQrLLC32qHIi0+FHn0ZkCk339syiY3VybHgpc2VsZiNqdW1iZj1jMnBhLmFzc2VydGlvbnMvYzJwYS5oYXNoLmRhdGFkaGFzaFggPxoQxC8pLVNo1g3uy0LgwoC62/dGxHUGA3+IUq4H/FJ0Y2xhaW1fZ2VuZXJhdG9yX2luZm+jZG5hbWVvQW50aHJvcGljIEZpbGVzZ3ZlcnNpb25lMS4wLjBrc3BlY1ZlcnNpb25lMi40LjAAABA4anVtYgAAAChqdW1kYzJjcwARABCAAACqADibcQNjMnBhLnNpZ25hdHVyZQAAABAIY2JvctKEWQISogEmGCFZAgowggIGMIIBjaADAgECAhRA5aAK7sI50L64g/oGQgU9Z1UTADAKBggqhkjOPQQDAzBJMRcwFQYDVQQKEw5BbnRocm9waWMsIFBCQzEuMCwGA1UEAxMlQW50aHJvcGljIENvbnRlbnQgQ3JlZGVudGlhbHMgUm9vdCBDQTAeFw0yNjA4MDcxODQzNTZaFw0yODA4MDYxOTQzNTZaMEQxFzAVBgNVBAoTDkFudGhyb3BpYywgUEJDMSkwJwYDVQQDEyBBbnRocm9waWMgQ2xhdWRlIENvbnRlbnQgU2lnbmluZzBZMBMGByqGSM49AgEGCCqGSM49AwEHA0IABJh6CmvLUBgFFNU0vUKlOVtE6djd17L5SuwX0LemFisBM3dkd/3cyjxFA3Qo5S46fX0/ihY0VZ7mfb9KF703t5OjWDBWMA4GA1UdDwEB/wQEAwIHgDAVBgNVHSUEDjAMBgorBgEEAYPoXgIBMAwGA1UdEwEB/wQCMAAwHwYDVR0jBBgwFoAUzlHiBIFOZFsj+OPEz5o+nMHXXMIwCgYIKoZIzj0EAwMDZwAwZAIwMXMdFJ4BetLLVY7ORuE9noqbbAZOZn/aArXyTwFAZfKrPzxF2vPoJNf1+UCdg1XGAjBwX1zd9WGqYkqmL5SFqw1QySjr1zJfpJM9+1rdDwSPLMOPOjKuiXjoU/pUUeG9RwmhY3BhZFkNngAAAAAAAAAAAAAAAAAAAAAAAAAAAAAAAAAAAAAAAAAAAAAAAAAAAAAAAAAAAAAAAAAAAAAAAAAAAAAAAAAAAAAAAAAAAAAAAAAAAAAAAAAAAAAAAAAAAAAAAAAAAAAAAAAAAAAAAAAAAAAAAAAAAAAAAAAAAAAAAAAAAAAAAAAAAAAAAAAAAAAAAAAAAAAAAAAAAAAAAAAAAAAAAAAAAAAAAAAAAAAAAAAAAAAAAAAAAAAAAAAAAAAAAAAAAAAAAAAAAAAAAAAAAAAAAAAAAAAAAAAAAAAAAAAAAAAAAAAAAAAAAAAAAAAAAAAAAAAAAAAAAAAAAAAAAAAAAAAAAAAAAAAAAAAAAAAAAAAAAAAAAAAAAAAAAAAAAAAAAAAAAAAAAAAAAAAAAAAAAAAAAAAAAAAAAAAAAAAAAAAAAAAAAAAAAAAAAAAAAAAAAAAAAAAAAAAAAAAAAAAAAAAAAAAAAAAAAAAAAAAAAAAAAAAAAAAAAAAAAAAAAAAAAAAAAAAAAAAAAAAAAAAAAAAAAAAAAAAAAAAAAAAAAAAAAAAAAAAAAAAAAAAAAAAAAAAAAAAAAAAAAAAAAAAAAAAAAAAAAAAAAAAAAAAAAAAAAAAAAAAAAAAAAAAAAAAAAAAAAAAAAAAAAAAAAAAAAAAAAAAAAAAAAAAAAAAAAAAAAAAAAAAAAAAAAAAAAAAAAAAAAAAAAAAAAAAAAAAAAAAAAAAAAAAAAAAAAAAAAAAAAAAAAAAAAAAAAAAAAAAAAAAAAAAAAAAAAAAAAAAAAAAAAAAAAAAAAAAAAAAAAAAAAAAAAAAAAAAAAAAAAAAAAAAAAAAAAAAAAAAAAAAAAAAAAAAAAAAAAAAAAAAAAAAAAAAAAAAAAAAAAAAAAAAAAAAAAAAAAAAAAAAAAAAAAAAAAAAAAAAAAAAAAAAAAAAAAAAAAAAAAAAAAAAAAAAAAAAAAAAAAAAAAAAAAAAAAAAAAAAAAAAAAAAAAAAAAAAAAAAAAAAAAAAAAAAAAAAAAAAAAAAAAAAAAAAAAAAAAAAAAAAAAAAAAAAAAAAAAAAAAAAAAAAAAAAAAAAAAAAAAAAAAAAAAAAAAAAAAAAAAAAAAAAAAAAAAAAAAAAAAAAAAAAAAAAAAAAAAAAAAAAAAAAAAAAAAAAAAAAAAAAAAAAAAAAAAAAAAAAAAAAAAAAAAAAAAAAAAAAAAAAAAAAAAAAAAAAAAAAAAAAAAAAAAAAAAAAAAAAAAAAAAAAAAAAAAAAAAAAAAAAAAAAAAAAAAAAAAAAAAAAAAAAAAAAAAAAAAAAAAAAAAAAAAAAAAAAAAAAAAAAAAAAAAAAAAAAAAAAAAAAAAAAAAAAAAAAAAAAAAAAAAAAAAAAAAAAAAAAAAAAAAAAAAAAAAAAAAAAAAAAAAAAAAAAAAAAAAAAAAAAAAAAAAAAAAAAAAAAAAAAAAAAAAAAAAAAAAAAAAAAAAAAAAAAAAAAAAAAAAAAAAAAAAAAAAAAAAAAAAAAAAAAAAAAAAAAAAAAAAAAAAAAAAAAAAAAAAAAAAAAAAAAAAAAAAAAAAAAAAAAAAAAAAAAAAAAAAAAAAAAAAAAAAAAAAAAAAAAAAAAAAAAAAAAAAAAAAAAAAAAAAAAAAAAAAAAAAAAAAAAAAAAAAAAAAAAAAAAAAAAAAAAAAAAAAAAAAAAAAAAAAAAAAAAAAAAAAAAAAAAAAAAAAAAAAAAAAAAAAAAAAAAAAAAAAAAAAAAAAAAAAAAAAAAAAAAAAAAAAAAAAAAAAAAAAAAAAAAAAAAAAAAAAAAAAAAAAAAAAAAAAAAAAAAAAAAAAAAAAAAAAAAAAAAAAAAAAAAAAAAAAAAAAAAAAAAAAAAAAAAAAAAAAAAAAAAAAAAAAAAAAAAAAAAAAAAAAAAAAAAAAAAAAAAAAAAAAAAAAAAAAAAAAAAAAAAAAAAAAAAAAAAAAAAAAAAAAAAAAAAAAAAAAAAAAAAAAAAAAAAAAAAAAAAAAAAAAAAAAAAAAAAAAAAAAAAAAAAAAAAAAAAAAAAAAAAAAAAAAAAAAAAAAAAAAAAAAAAAAAAAAAAAAAAAAAAAAAAAAAAAAAAAAAAAAAAAAAAAAAAAAAAAAAAAAAAAAAAAAAAAAAAAAAAAAAAAAAAAAAAAAAAAAAAAAAAAAAAAAAAAAAAAAAAAAAAAAAAAAAAAAAAAAAAAAAAAAAAAAAAAAAAAAAAAAAAAAAAAAAAAAAAAAAAAAAAAAAAAAAAAAAAAAAAAAAAAAAAAAAAAAAAAAAAAAAAAAAAAAAAAAAAAAAAAAAAAAAAAAAAAAAAAAAAAAAAAAAAAAAAAAAAAAAAAAAAAAAAAAAAAAAAAAAAAAAAAAAAAAAAAAAAAAAAAAAAAAAAAAAAAAAAAAAAAAAAAAAAAAAAAAAAAAAAAAAAAAAAAAAAAAAAAAAAAAAAAAAAAAAAAAAAAAAAAAAAAAAAAAAAAAAAAAAAAAAAAAAAAAAAAAAAAAAAAAAAAAAAAAAAAAAAAAAAAAAAAAAAAAAAAAAAAAAAAAAAAAAAAAAAAAAAAAAAAAAAAAAAAAAAAAAAAAAAAAAAAAAAAAAAAAAAAAAAAAAAAAAAAAAAAAAAAAAAAAAAAAAAAAAAAAAAAAAAAAAAAAAAAAAAAAAAAAAAAAAAAAAAAAAAAAAAAAAAAAAAAAAAAAAAAAAAAAAAAAAAAAAAAAAAAAAAAAAAAAAAAAAAAAAAAAAAAAAAAAAAAAAAAAAAAAAAAAAAAAAAAAAAAAAAAAAAAAAAAAAAAAAAAAAAAAAAAAAAAAAAAAAAAAAAAAAAAAAAAAAAAAAAAAAAAAAAAAAAAAAAAAAAAAAAAAAAAAAAAAAAAAAAAAAAAAAAAAAAAAAAAAAAAAAAAAAAAAAAAAAAAAAAAAAAAAAAAAAAAAAAAAAAAAAAAAAAAAAAAAAAAAAAAAAAAAAAAAAAAAAAAAAAAAAAAAAAAAAAAAAAAAAAAAAAAAAAAAAAAAAAAAAAAAAAAAAAAAAAAAAAAAAAAAAAAAAAAAAAAAAAAAAAAAAAAAAAAAAAAAAAAAAAAAAAAAAAAAAAAAAAAAAAAAAAAAAAAAAAAAAAAAAAAAAAAAAAAAAAAAAAAAAAAAAAAAAAAAAAAAAAAAAAAAAAAAAAAAAAAAAAAAAAAAAAAAAAAAAAAAAAAAAAAAAAAAAAAAAAAAAAAAAAAAAAAAAAAAAAAAAAAAAAAAAAAAAAAAAAAAAAAAAAAAAAAAAAAAAAAAAAAAAAAAAAAAAAAAAAAAAAAAAAAAAAAAAAAAAAAAAAAAAAAAAAAAAAAAAAAAAAAAAAAAAAAAAAAAAAAAAAAAAAAAAAAAAAAAAAAAAAAAAAAAAAAAAAAAAAAAAAAAAAAAAAAAAAAAAAAAAAAAAAAAAAAAAAAAAAAAAAAAAAAAAAAAAAAAAAAAAAAAAAAAAAAAAAAAAAAAAAAAAAAAAAAAAAAAAAAAAAAAAAAAAAAAAAAAAAAAAAAAAAAAAAAAAAAAAAAAAAAAAAAAAAAAAAAAAAAAAAAAAAAAAAAAAAAAAAAAAAAAAAAAAAAAAAAAAAAAAAAAAAAAAAAAAAAAAAAAAAAAAAAAAAAAAAAAAAAAAAAAAAAAAAAAAAAAAAAAAAAAAAAAAAAAAAAAAAAAAAAAAAAAAAAAAAAAAAAAAAAAAAAAAAAAAAAAAAAAAAAAAAAAAAAAAAAAAAAAAAAAAAAAAAAAAAAAAAAAAAAAAAAAAAAAAAAAAAAAAAAAAAAAAAAAAAAAAAAAAAAAAAAAAAAAAAAAAAAAAAAAAAAAAAAAAAAAAAAAAAAAAAAAAAAAAAAAAAAAAAAAAAAAAAAAAAAAAAAAAAAAAAAAAAAAAAAAAAAAAAAAAAAAAAAAAAAAAAAAAAAAAAAAAAAAAAAAAAAAAAAAAAAAAAAAAAAAAAAAAAAAAAAAAAAAAAAAAAAAAAAAAAAAAAAAAAAAAAAAAAAAAAAAAAAAAAAAAAAAAAAAAAAAAAAAAAAAAAAAAAAAAAAAAAAAAAAAAAAAAAAAAAAAAAAAAAAAAAAAAAAAAAAAAAAAAAAAAAAAAAAAAAAAAAAAAAAAAAAAAAAAAAAAAAAAAAAAAAAAAAAAAAAAAAAAAAAAAAAAAAAAAAAAAAAAAAAAAAAAAAAAAAAAAAAAAAAAAAAAAAAAAAAAAAAAAAAAAAAAAAAAAAAAAAAAAAAAAAAAAAAAAAAAAAAAAAAAAAAAAAAAAAAAAAAAAAAAAAAAAAAAAAAAAAAAAAAAAAAAAAAAAAAAAAAAAAAAAAAAAAAAAAAAAAAAAAAAAAAAAAAAAAAAAAAAAAAAAAAAAAAAAAAAAAAAAAAAAAAAAAAAAAAAAAAAAAAAAAAAAAAAAAAAAAAAAAAAAAAAAAAAAAAAAAAAAAAAAAAAAAAAAAAAAAAAAAAAAAAAAAAAAAAAAAAAAAAAAAAAAAAAAAAAAAAAAAAAAAAAAAAAAAAAAAAAAAAAAAAAAAAAAAAAAAAAAAAAAAAAAAAAAAAAAAAAAAAAAAAAAAAAAAAAAAAAAAAAAAAAAAAAAAAAAAAAAAAAAAAAAAAAAAAAAAAAAAAAAAAAAAAAAAAAAAAAAAAAAAAAAAAAAAAAAAAAAAAAAAAAAAAAAAAAAAAAPZYQPBrrjpkwrt5KkTX1/HeguEcQWgYryKrP1wV0659ElmdusnxFsXKklOGJfmmafWU4bMb7PZjOpBkwtaH0hP7x4w=</c2pa:manifest></metadata><defs><linearGradient id="abStem" x1="0" y1="1" x2="0" y2="0"><stop offset="0" stop-color="#6FC05E"></stop><stop offset="0.39" stop-color="#81C556"></stop><stop offset="0.85" stop-color="#B8D540"></stop><stop offset="1" stop-color="#BBD63F"></stop></linearGradient><linearGradient id="abLoop" x1="0" y1="1" x2="1" y2="0"><stop offset="0.07" stop-color="#1253A5"></stop><stop offset="0.29" stop-color="#348BB7"></stop><stop offset="0.46" stop-color="#4BB0C4"></stop><stop offset="0.55" stop-color="#54BFC9"></stop><stop offset="0.98" stop-color="#BBD63F"></stop></linearGradient></defs><g transform="translate(2.000 25.571) scale(1.0000 1.0000)">
            <path d="M 5.469 2.558 L 5.469 5.844 L 3.906 5.844 L 3.906 5.127 C 3.596 5.651 2.997 5.93 2.151 5.93 C 0.803 5.93 0 5.18 0 4.185 C 0 3.168 0.717 2.462 2.472 2.462 L 3.799 2.462 C 3.799 1.745 3.371 1.327 2.472 1.327 C 1.862 1.327 1.231 1.53 0.813 1.862 L 0.214 0.696 C 0.845 0.246 1.777 0 2.697 0 C 4.452 0 5.469 0.813 5.469 2.558 Z M 3.8 4.024 L 3.8 3.435 L 2.655 3.435 C 1.873 3.435 1.627 3.725 1.627 4.11 C 1.627 4.527 1.98 4.805 2.569 4.805 C 3.125 4.805 3.607 4.549 3.8 4.024 Z" fill="rgb(18,83,165)" fill-rule="nonzero"></path>
          </g><g transform="translate(8.978 25.571) scale(1.0000 1.0000)">
            <path d="M 9.728 2.547 L 9.728 5.843 L 8.059 5.843 L 8.059 2.804 C 8.059 1.872 7.641 1.444 6.967 1.444 C 6.218 1.444 5.693 1.926 5.693 2.953 L 5.693 5.843 L 4.024 5.843 L 4.024 2.804 C 4.024 1.872 3.628 1.444 2.932 1.444 C 2.194 1.444 1.669 1.926 1.669 2.953 L 1.669 5.843 L 0 5.843 L 0 0.085 L 1.595 0.085 L 1.595 0.749 C 2.023 0.257 2.665 0 3.404 0 C 4.206 0 4.891 0.31 5.298 0.942 C 5.758 0.353 6.507 0 7.374 0 C 8.744 0 9.728 0.792 9.728 2.547 Z" fill="rgb(18,83,165)" fill-rule="nonzero"></path>
          </g><g transform="translate(19.984 25.571) scale(1.0000 1.0000)">
            <path d="M 5.469 2.558 L 5.469 5.844 L 3.906 5.844 L 3.906 5.127 C 3.596 5.651 2.997 5.93 2.151 5.93 C 0.803 5.93 0 5.18 0 4.185 C 0 3.168 0.717 2.462 2.472 2.462 L 3.799 2.462 C 3.799 1.745 3.371 1.327 2.472 1.327 C 1.862 1.327 1.231 1.53 0.813 1.862 L 0.214 0.696 C 0.846 0.246 1.777 0 2.697 0 C 4.452 0 5.469 0.813 5.469 2.558 Z M 3.8 4.024 L 3.8 3.435 L 2.655 3.435 C 1.873 3.435 1.627 3.725 1.627 4.11 C 1.627 4.527 1.98 4.805 2.569 4.805 C 3.125 4.805 3.607 4.549 3.8 4.024 Z" fill="rgb(18,83,165)" fill-rule="nonzero"></path>
          </g><g transform="translate(26.962 25.656) scale(1.0000 1.0000)">
            <path d="M 3.575 0.034 L 3.575 1.575 C 3.435 1.565 3.328 1.554 3.2 1.554 C 2.279 1.554 1.669 2.487 1.669 3.04 L 1.669 5.758 L 0 5.758 L 0 0 L 1.595 0 L 1.595 0.76 C 2.001 0.203 2.686 0.034 3.575 0.034 Z" fill="rgb(18,83,165)" fill-rule="nonzero"></path>
          </g><g transform="translate(34.095 23.032) scale(1.0000 1.0000)">
            <path d="M 6.272 5.503 C 6.272 7.312 5.02 8.468 3.404 8.468 C 2.633 8.468 2.012 8.222 1.595 7.719 L 1.595 8.383 L 0 8.383 L 0 0 L 1.669 0 L 1.669 3.234 C 2.098 2.764 2.686 2.539 3.403 2.539 C 5.02 2.539 6.272 3.695 6.272 5.503 Z M 4.581 5.503 C 4.581 4.508 3.95 3.909 3.115 3.909 C 2.28 3.909 1.649 4.508 1.649 5.503 C 1.649 6.499 2.28 7.098 3.115 7.098 C 3.949 7.098 4.581 6.499 4.581 5.503 Z" fill="rgb(18,83,165)" fill-rule="nonzero"></path>
          </g><g transform="translate(41.364 25.571) scale(1.0000 1.0000)">
            <path d="M 5.469 2.558 L 5.469 5.844 L 3.906 5.844 L 3.906 5.127 C 3.596 5.651 2.997 5.93 2.151 5.93 C 0.803 5.93 0 5.18 0 4.185 C 0 3.168 0.717 2.462 2.472 2.462 L 3.799 2.462 C 3.799 1.745 3.371 1.327 2.472 1.327 C 1.862 1.327 1.231 1.53 0.813 1.862 L 0.214 0.696 C 0.845 0.246 1.777 0 2.697 0 C 4.452 0 5.469 0.813 5.469 2.558 Z M 3.8 4.024 L 3.8 3.435 L 2.655 3.435 C 1.873 3.435 1.627 3.725 1.627 4.11 C 1.627 4.527 1.98 4.805 2.569 4.805 C 3.125 4.805 3.607 4.549 3.8 4.024 Z" fill="rgb(18,83,165)" fill-rule="nonzero"></path>
          </g><g transform="translate(48.342 25.571) scale(1.0000 1.0000)">
            <path d="M 5.886 2.547 L 5.886 5.844 L 4.217 5.844 L 4.217 2.804 C 4.217 1.873 3.789 1.445 3.05 1.445 C 2.247 1.445 1.669 1.937 1.669 2.997 L 1.669 5.843 L 0 5.843 L 0 0.086 L 1.595 0.086 L 1.595 0.76 C 2.044 0.268 2.718 0 3.5 0 C 4.859 0 5.886 0.792 5.886 2.547 Z" fill="rgb(18,83,165)" fill-rule="nonzero"></path>
          </g><g transform="translate(55.738 25.656) scale(1.0000 1.0000)">
            <path d="M 2.472 3.5 L 1.669 4.292 L 1.669 5.758 L 0 5.758 L 0 0.026 L 1.669 0.026 L 1.669 2.312 L 4.11 0 L 6.101 0 L 3.703 2.44 L 6.315 5.758 L 4.292 5.758 L 2.472 3.5 Z" fill="rgb(18,83,165)" fill-rule="nonzero"></path>
          </g><g transform="translate(14.584 1.000) scale(1.0000 1.0000)">
                  <path d="M 0 0 L 0 4.228 L 0 8.429 L 0 12.629 L 4.229 12.629 L 4.229 8.429 L 4.229 4.228 L 4.229 0 L 0 0 Z" fill="url(#abStem)" fill-rule="nonzero"></path>
                </g><g transform="translate(14.576 5.163) scale(1.0000 1.0000)">
                <path d="M 32.386 2.471 C 30.734 0.824 28.57 0 26.404 0 C 24.239 0 22.075 0.824 20.422 2.471 L 17.431 5.454 L 14.441 2.471 C 11.137 -0.823 5.781 -0.823 2.478 2.471 C -0.826 5.768 -0.826 11.109 2.478 14.405 C 5.781 17.699 11.137 17.699 14.441 14.405 L 16.694 12.157 L 14.441 8.438 L 17.431 11.422 L 20.422 14.405 C 23.727 17.699 29.082 17.699 32.386 14.405 C 35.69 11.11 35.69 5.768 32.386 2.471 Z M 11.45 11.422 C 10.652 12.219 9.589 12.658 8.459 12.658 C 7.328 12.658 6.267 12.219 5.468 11.422 C 4.669 10.624 4.23 9.565 4.23 8.438 C 4.23 7.31 4.669 6.252 5.468 5.454 C 6.267 4.658 7.328 4.219 8.459 4.219 C 9.589 4.219 10.651 4.658 11.45 5.454 L 14.441 8.438 L 11.45 11.422 Z M 29.395 11.422 C 28.597 12.219 27.534 12.658 26.405 12.658 C 25.275 12.658 24.212 12.219 23.413 11.422 L 20.422 8.438 L 23.413 5.454 C 24.212 4.658 25.275 4.219 26.405 4.219 C 27.534 4.219 28.597 4.658 29.395 5.454 C 30.194 6.252 30.635 7.31 30.635 8.438 C 30.635 9.564 30.194 10.624 29.395 11.422 Z" fill="url(#abLoop)" fill-rule="nonzero"></path>
              </g><g transform="translate(31.991 5.155) scale(1.0000 1.0000)">
              <path d="M 0 5.446 L 3.172 2.254 C 3.172 2.254 5.393 0 8.989 0 C 10.785 0 13.094 0.607 14.971 2.482 C 14.971 2.482 18.098 5.294 17.348 9.76 C 17.348 9.76 16.973 13.266 13.797 15.419 C 13.025 15.943 9.668 17.94 5.582 16.17 C 5.582 16.17 13.716 13.801 13.183 8.055 C 12.953 5.57 10.76 4.285 9.121 4.236 C 9.121 4.236 7.352 4.107 5.998 5.47 L 3.013 8.452 L 0 5.446 Z" fill="url(#abLoop)" fill-rule="nonzero"></path>
            </g><g transform="translate(14.576 13.600) scale(1.0000 1.0000)">
              <path d="M 16.703 3.733 L 15.107 5.322 C 15.107 5.322 13.017 7.897 9.777 8.374 C 6.536 8.85 4.219 7.353 4.219 7.353 C 4.219 7.353 1.239 5.899 0.237 2.09 C 0.237 2.09 -0.006 1.258 0 0.021 C 0 0.021 3.375 4.22 8.436 4.22 C 8.436 4.22 10.06 4.328 11.433 3.017 L 14.441 0 L 16.703 3.733 Z" fill="url(#abLoop)" fill-rule="nonzero"></path>
            </g><g transform="translate(29.017 13.601) scale(1.0000 1.0000)">
              <path d="M 0 0 L 2.262 3.732 L 2.991 2.984 L 0 0 Z" fill="rgb(18,83,165)" fill-rule="nonzero"></path>
            </g></svg>