<svg xmlns="http://www.w3.org/2000/svg" width="164" height="30" viewBox="0 0 164 30" fill="none" xmlns:c2pa="http://c2pa.org/manifest"><metadata><c2pa:manifest>AAAWgmp1bWIAAAAeanVtZGMycGEAEQAQgAAAqgA4m3EDYzJwYQAAABZcanVtYgAAAEdqdW1kYzJtYQARABCAAACqADibcQN1cm46YzJwYTo2MzYxNWUwMi1lODRhLTQzNTEtODRjZi00NTlhZDk4Zjk3OTgAAAADl2p1bWIAAAApanVtZGMyYXMAEQAQgAAAqgA4m3EDYzJwYS5hc3NlcnRpb25zAAAAALxqdW1iAAAARGp1bWRjYm9yABEAEIAAAKoAOJtxE2MycGEuaW5ncmVkaWVudC52MwAAAAAYYzJzaGTLJf65+CNa4TzD739bCtUAAABwY2JvcqNpZGM6Zm9ybWF0bWltYWdlL3N2Zyt4bWxqaW5zdGFuY2VJRHgseG1wOmlpZDoxZTUxZjYyOS04NTZiLTQxYjMtOTQ5Yy0zMTUyODQ3M2IzZDhscmVsYXRpb25zaGlwaHBhcmVudE9mAAAB4mp1bWIAAABBanVtZGNib3IAEQAQgAAAqgA4m3ETYzJwYS5hY3Rpb25zLnYyAAAAABhjMnNozUG8GCMEtYv/7JVDTW+kAgAAAZljYm9yomdhY3Rpb25zgqJmYWN0aW9ua2MycGEub3BlbmVkanBhcmFtZXRlcnOha2luZ3JlZGllbnRzgaJjdXJseC1zZWxmI2p1bWJmPWMycGEuYXNzZXJ0aW9ucy9jMnBhLmluZ3JlZGllbnQudjNkaGFzaFggPXYQk6k14xPbnXnarCF8f/EgUl/jSWblEpMDxuQ2CPOkZmFjdGlvbngdY29tLmFudGhyb3BpYy5jbGF1ZGUucHJvdmlkZWRqcGFyYW1ldGVyc6F4H2NvbS5hbnRocm9waWMub3JpZ2luLWNvbmZpZGVuY2VndW5rbm93bmtkZXNjcmlwdGlvbnhmQ2xhdWRlIHByb3ZpZGVkIHRoaXMgZmlsZSBhdCB0aGUgcmVxdWVzdCBvZiBhIHVzZXIgYW5kIG1heSBoYXZlIGNyZWF0ZWQgb3IgbW9kaWZpZWQgdGhlIGZpbGUgY29udGVudHMubXNvZnR3YXJlQWdlbnShZG5hbWVmQ2xhdWRlcmFsbEFjdGlvbnNJbmNsdWRlZPUAAADIanVtYgAAAEBqdW1kY2JvcgARABCAAACqADibcRNjMnBhLmhhc2guZGF0YQAAAAAYYzJzaLt3JqL9e25trHu+fzPP3UEAAACAY2JvcqVjYWxnZnNoYTI1NmNwYWRNAAAAAAAAAAAAAAAAAGRoYXNoWCCK+pfc5ntqxbfTWCiImRsOFQ3D2XP7u54JLyBSiTdh0WRuYW1lbmp1bWJmIG1hbmlmZXN0amV4Y2x1c2lvbnOBomVzdGFydBigZmxlbmd0aBkeBAAAAj5qdW1iAAAAJ2p1bWRjMmNsABEAEIAAAKoAOJtxA2MycGEuY2xhaW0udjIAAAACD2Nib3KlY2FsZ2ZzaGEyNTZpc2lnbmF0dXJleE1zZWxmI2p1bWJmPS9jMnBhL3VybjpjMnBhOjYzNjE1ZTAyLWU4NGEtNDM1MS04NGNmLTQ1OWFkOThmOTc5OC9jMnBhLnNpZ25hdHVyZWppbnN0YW5jZUlEeCx4bXA6aWlkOmMxM2YyMDEyLTZjMTItNDlmYy05NzJmLTNlN2RmNmU4MGM1ZnJjcmVhdGVkX2Fzc2VydGlvbnODomN1cmx4LXNlbGYjanVtYmY9YzJwYS5hc3NlcnRpb25zL2MycGEuaW5ncmVkaWVudC52M2RoYXNoWCA9dhCTqTXjE9udedqsIXx/8SBSX+NJZuUSkwPG5DYI86JjdXJseCpzZWxmI2p1bWJmPWMycGEuYXNzZXJ0aW9ucy9jMnBhLmFjdGlvbnMudjJkaGFzaFggxpDCri9gTEsgpEnElgttQSm6eXQgGq2S/QhRKYjW456iY3VybHgpc2VsZiNqdW1iZj1jMnBhLmFzc2VydGlvbnMvYzJwYS5oYXNoLmRhdGFkaGFzaFggC0P6r6D9aAP4A6RaUgaG93MwQsRMmM9J4cVWoPWXER90Y2xhaW1fZ2VuZXJhdG9yX2luZm+jZG5hbWVvQW50aHJvcGljIEZpbGVzZ3ZlcnNpb25lMS4wLjBrc3BlY1ZlcnNpb25lMi40LjAAABA4anVtYgAAAChqdW1kYzJjcwARABCAAACqADibcQNjMnBhLnNpZ25hdHVyZQAAABAIY2JvctKEWQISogEmGCFZAgowggIGMIIBjaADAgECAhRA5aAK7sI50L64g/oGQgU9Z1UTADAKBggqhkjOPQQDAzBJMRcwFQYDVQQKEw5BbnRocm9waWMsIFBCQzEuMCwGA1UEAxMlQW50aHJvcGljIENvbnRlbnQgQ3JlZGVudGlhbHMgUm9vdCBDQTAeFw0yNjA4MDcxODQzNTZaFw0yODA4MDYxOTQzNTZaMEQxFzAVBgNVBAoTDkFudGhyb3BpYywgUEJDMSkwJwYDVQQDEyBBbnRocm9waWMgQ2xhdWRlIENvbnRlbnQgU2lnbmluZzBZMBMGByqGSM49AgEGCCqGSM49AwEHA0IABJh6CmvLUBgFFNU0vUKlOVtE6djd17L5SuwX0LemFisBM3dkd/3cyjxFA3Qo5S46fX0/ihY0VZ7mfb9KF703t5OjWDBWMA4GA1UdDwEB/wQEAwIHgDAVBgNVHSUEDjAMBgorBgEEAYPoXgIBMAwGA1UdEwEB/wQCMAAwHwYDVR0jBBgwFoAUzlHiBIFOZFsj+OPEz5o+nMHXXMIwCgYIKoZIzj0EAwMDZwAwZAIwMXMdFJ4BetLLVY7ORuE9noqbbAZOZn/aArXyTwFAZfKrPzxF2vPoJNf1+UCdg1XGAjBwX1zd9WGqYkqmL5SFqw1QySjr1zJfpJM9+1rdDwSPLMOPOjKuiXjoU/pUUeG9RwmhY3BhZFkNngAAAAAAAAAAAAAAAAAAAAAAAAAAAAAAAAAAAAAAAAAAAAAAAAAAAAAAAAAAAAAAAAAAAAAAAAAAAAAAAAAAAAAAAAAAAAAAAAAAAAAAAAAAAAAAAAAAAAAAAAAAAAAAAAAAAAAAAAAAAAAAAAAAAAAAAAAAAAAAAAAAAAAAAAAAAAAAAAAAAAAAAAAAAAAAAAAAAAAAAAAAAAAAAAAAAAAAAAAAAAAAAAAAAAAAAAAAAAAAAAAAAAAAAAAAAAAAAAAAAAAAAAAAAAAAAAAAAAAAAAAAAAAAAAAAAAAAAAAAAAAAAAAAAAAAAAAAAAAAAAAAAAAAAAAAAAAAAAAAAAAAAAAAAAAAAAAAAAAAAAAAAAAAAAAAAAAAAAAAAAAAAAAAAAAAAAAAAAAAAAAAAAAAAAAAAAAAAAAAAAAAAAAAAAAAAAAAAAAAAAAAAAAAAAAAAAAAAAAAAAAAAAAAAAAAAAAAAAAAAAAAAAAAAAAAAAAAAAAAAAAAAAAAAAAAAAAAAAAAAAAAAAAAAAAAAAAAAAAAAAAAAAAAAAAAAAAAAAAAAAAAAAAAAAAAAAAAAAAAAAAAAAAAAAAAAAAAAAAAAAAAAAAAAAAAAAAAAAAAAAAAAAAAAAAAAAAAAAAAAAAAAAAAAAAAAAAAAAAAAAAAAAAAAAAAAAAAAAAAAAAAAAAAAAAAAAAAAAAAAAAAAAAAAAAAAAAAAAAAAAAAAAAAAAAAAAAAAAAAAAAAAAAAAAAAAAAAAAAAAAAAAAAAAAAAAAAAAAAAAAAAAAAAAAAAAAAAAAAAAAAAAAAAAAAAAAAAAAAAAAAAAAAAAAAAAAAAAAAAAAAAAAAAAAAAAAAAAAAAAAAAAAAAAAAAAAAAAAAAAAAAAAAAAAAAAAAAAAAAAAAAAAAAAAAAAAAAAAAAAAAAAAAAAAAAAAAAAAAAAAAAAAAAAAAAAAAAAAAAAAAAAAAAAAAAAAAAAAAAAAAAAAAAAAAAAAAAAAAAAAAAAAAAAAAAAAAAAAAAAAAAAAAAAAAAAAAAAAAAAAAAAAAAAAAAAAAAAAAAAAAAAAAAAAAAAAAAAAAAAAAAAAAAAAAAAAAAAAAAAAAAAAAAAAAAAAAAAAAAAAAAAAAAAAAAAAAAAAAAAAAAAAAAAAAAAAAAAAAAAAAAAAAAAAAAAAAAAAAAAAAAAAAAAAAAAAAAAAAAAAAAAAAAAAAAAAAAAAAAAAAAAAAAAAAAAAAAAAAAAAAAAAAAAAAAAAAAAAAAAAAAAAAAAAAAAAAAAAAAAAAAAAAAAAAAAAAAAAAAAAAAAAAAAAAAAAAAAAAAAAAAAAAAAAAAAAAAAAAAAAAAAAAAAAAAAAAAAAAAAAAAAAAAAAAAAAAAAAAAAAAAAAAAAAAAAAAAAAAAAAAAAAAAAAAAAAAAAAAAAAAAAAAAAAAAAAAAAAAAAAAAAAAAAAAAAAAAAAAAAAAAAAAAAAAAAAAAAAAAAAAAAAAAAAAAAAAAAAAAAAAAAAAAAAAAAAAAAAAAAAAAAAAAAAAAAAAAAAAAAAAAAAAAAAAAAAAAAAAAAAAAAAAAAAAAAAAAAAAAAAAAAAAAAAAAAAAAAAAAAAAAAAAAAAAAAAAAAAAAAAAAAAAAAAAAAAAAAAAAAAAAAAAAAAAAAAAAAAAAAAAAAAAAAAAAAAAAAAAAAAAAAAAAAAAAAAAAAAAAAAAAAAAAAAAAAAAAAAAAAAAAAAAAAAAAAAAAAAAAAAAAAAAAAAAAAAAAAAAAAAAAAAAAAAAAAAAAAAAAAAAAAAAAAAAAAAAAAAAAAAAAAAAAAAAAAAAAAAAAAAAAAAAAAAAAAAAAAAAAAAAAAAAAAAAAAAAAAAAAAAAAAAAAAAAAAAAAAAAAAAAAAAAAAAAAAAAAAAAAAAAAAAAAAAAAAAAAAAAAAAAAAAAAAAAAAAAAAAAAAAAAAAAAAAAAAAAAAAAAAAAAAAAAAAAAAAAAAAAAAAAAAAAAAAAAAAAAAAAAAAAAAAAAAAAAAAAAAAAAAAAAAAAAAAAAAAAAAAAAAAAAAAAAAAAAAAAAAAAAAAAAAAAAAAAAAAAAAAAAAAAAAAAAAAAAAAAAAAAAAAAAAAAAAAAAAAAAAAAAAAAAAAAAAAAAAAAAAAAAAAAAAAAAAAAAAAAAAAAAAAAAAAAAAAAAAAAAAAAAAAAAAAAAAAAAAAAAAAAAAAAAAAAAAAAAAAAAAAAAAAAAAAAAAAAAAAAAAAAAAAAAAAAAAAAAAAAAAAAAAAAAAAAAAAAAAAAAAAAAAAAAAAAAAAAAAAAAAAAAAAAAAAAAAAAAAAAAAAAAAAAAAAAAAAAAAAAAAAAAAAAAAAAAAAAAAAAAAAAAAAAAAAAAAAAAAAAAAAAAAAAAAAAAAAAAAAAAAAAAAAAAAAAAAAAAAAAAAAAAAAAAAAAAAAAAAAAAAAAAAAAAAAAAAAAAAAAAAAAAAAAAAAAAAAAAAAAAAAAAAAAAAAAAAAAAAAAAAAAAAAAAAAAAAAAAAAAAAAAAAAAAAAAAAAAAAAAAAAAAAAAAAAAAAAAAAAAAAAAAAAAAAAAAAAAAAAAAAAAAAAAAAAAAAAAAAAAAAAAAAAAAAAAAAAAAAAAAAAAAAAAAAAAAAAAAAAAAAAAAAAAAAAAAAAAAAAAAAAAAAAAAAAAAAAAAAAAAAAAAAAAAAAAAAAAAAAAAAAAAAAAAAAAAAAAAAAAAAAAAAAAAAAAAAAAAAAAAAAAAAAAAAAAAAAAAAAAAAAAAAAAAAAAAAAAAAAAAAAAAAAAAAAAAAAAAAAAAAAAAAAAAAAAAAAAAAAAAAAAAAAAAAAAAAAAAAAAAAAAAAAAAAAAAAAAAAAAAAAAAAAAAAAAAAAAAAAAAAAAAAAAAAAAAAAAAAAAAAAAAAAAAAAAAAAAAAAAAAAAAAAAAAAAAAAAAAAAAAAAAAAAAAAAAAAAAAAAAAAAAAAAAAAAAAAAAAAAAAAAAAAAAAAAAAAAAAAAAAAAAAAAAAAAAAAAAAAAAAAAAAAAAAAAAAAAAAAAAAAAAAAAAAAAAAAAAAAAAAAAAAAAAAAAAAAAAAAAAAAAAAAAAAAAAAAAAAAAAAAAAAAAAAAAAAAAAAAAAAAAAAAAAAAAAAAAAAAAAAAAAAAAAAAAAAAAAAAAAAAAAAAAAAAAAAAAAAAAAAAAAAAAAAAAAAAAAAAAAAAAAAAAAAAAAAAAAAAAAAAAAAAAAAAAAAAAAAAAAAAAAAAAAAAAAAAAAAAAAAAAAAAAAAAAAAAAAAAAAAAAAAAAAAAAAAAAAAAAAAAAAAAAAAAAAAAAAAAAAAAAAAAAAAAAAAAAAAAAAAAAAAAAAAAAAAAAAAAAAAAAAAAAAAAAAAAAAAAAAAAAAAAAAAAAAAAAAAAAAAAAAAAAAAAAAAAAAAAAAAAAAAAAAAAAAAAAAAAAAAAAAAAAAAAAAAAAAAAAAAAAAAAAAAAAAAAAAAAAAAAAAAAAAAAAAAAAAAAAAAAAAAAAAAAAAAAAAAAAAAAAAAAAAAAAAAAAAAAAAAAAAAAAAAAAAAAAAAAAAAAAAAAAAAAAAAAAAAAAAAAAAAAAAAAAAAAAAAAAAAAAAAAAAAAAAAAAAAAAAAAAAAAAAAAAAAAAAAAAAAAAAAAAAAAAAAAAAAAAAAAAAAAAAAAAAAAAAAAAAAAAAAAAAAAAAAAAAAAAAAAAAAAAAAAAAAAAAAAAAAAAAAAAAAAAAAAAAAAAAAAAAAAAAAAAAAAAAAAAAAAAAAAAAAAAAAAAAAAAAAAAAAAAAAAAAAAAAAAAAAAAAAAAAAAAAAAAAAAAAAAAAAAAAAAAAAAAAAAAAAAAAAAAAAAAAAAAAAAAAAAAAAAAAAAAAAAAAAAAAAAAAAAAAAAAAAAAAAAAAAAAAAAAAAAAAAAAAAAAAAAAAAAAAAAAAAAAAAAAAAAAAAAAAAAAAAAAAAAAAAAAAAAAAAAAAAAAAAAAAAAAAAAAAAAAAAAAAAAAAAAAAAAAAAAAAAAAAAAAAAAAAAAAAAAAAAAAAAAAAAAAAAAAAAAAAAAAAAAAAAAAAAAAAAAAAAAAAAAAAAAAAAAAAAAAAAAAAAAAAAAAAAAAAAAAAAAAAAAAAAAAAAAAAAAAAAAAAAAAAAAAAAAAAAAAAAAAAAAAAAAAAAAAAAAAAAAAAAAAAAAAAAAAAAAAAAAAAAAAAAAAAAAAAAAAAAAAAAAAAAAAAAAAAAAAAAAAAAAAAAAAAAAAAAAAAAAAAAAAAAAAAAAAAAAAAAAAAAAAAAAAAAAAAAAAAAAAAAAAAAAAAAAAAAAAAAAAAAAAAAAAAAAAAAAAAAAAAAAAAAAAAAAAAAAAAAAAAAAAAAAAAAAAAAAAAAAAAAAAAAAAAAAAAAAAAAAAAAAAAAAAAAAAAAAAAAAAAAAAAAAAAAAAAAAAAAAAAAAAAAAAAAAAAAAAAAAAAAAAAAAAAAAAAAAAAAAAAAAAAAAAAAAAAAAAAAAAAAAAAAAAAAAAAAAAAAAAAAAAAAAAAAAAAAAAAAAAAAAAAAAAAAAAAAAAAAAAAAAAAAAAAAAAAAAAAAAAAAAAAAAAAAAAAAAAAAAAAAAAAAAAAAAAAAAAAAAAAAAAAAAAAAAAAAAAAAAAAAAAAAAAAAAAAAAAAAPZYQFBW1NhP30sXpW2mhdoB3t2yiElAKZ3g2xiygTuKLxiEah39WNItZ+S1wZnNwcqrfSgZQw0PMUsEFtxuncmcmUA=</c2pa:manifest></metadata><g transform="translate(49.559 11.760) scale(1.0000 1.0000)">
            <path d="M 10.422 4.875 L 10.422 11.137 L 7.444 11.137 L 7.444 9.77 C 6.853 10.77 5.711 11.3 4.099 11.3 C 1.53 11.3 0 9.872 0 7.975 C 0 6.038 1.367 4.691 4.711 4.691 L 7.24 4.691 C 7.24 3.325 6.424 2.529 4.711 2.529 C 3.549 2.529 2.346 2.917 1.55 3.549 L 0.408 1.326 C 1.611 0.469 3.386 0 5.14 0 C 8.485 0.001 10.422 1.55 10.422 4.875 Z M 7.24 7.669 L 7.24 6.548 L 5.058 6.548 C 3.569 6.548 3.1 7.098 3.1 7.833 C 3.1 8.628 3.773 9.159 4.895 9.159 C 5.955 9.158 6.873 8.669 7.24 7.669 Z" fill="rgb(37,38,43)" fill-rule="nonzero"></path>
          </g><g transform="translate(62.857 11.761) scale(1.0000 1.0000)">
            <path d="M 18.54 4.854 L 18.54 11.136 L 15.358 11.136 L 15.358 5.344 C 15.358 3.569 14.563 2.753 13.278 2.753 C 11.85 2.753 10.851 3.671 10.851 5.629 L 10.851 11.136 L 7.669 11.136 L 7.669 5.344 C 7.669 3.569 6.914 2.753 5.588 2.753 C 4.181 2.753 3.182 3.671 3.182 5.629 L 3.182 11.136 L 0 11.136 L 0 0.163 L 3.039 0.163 L 3.039 1.428 C 3.855 0.489 5.078 0 6.486 0 C 8.016 0 9.321 0.591 10.096 1.795 C 10.973 0.673 12.401 0 14.053 0 C 16.663 0 18.54 1.509 18.54 4.854 Z" fill="rgb(37,38,43)" fill-rule="nonzero"></path>
          </g><g transform="translate(83.831 11.760) scale(1.0000 1.0000)">
            <path d="M 10.422 4.875 L 10.422 11.137 L 7.444 11.137 L 7.444 9.77 C 6.853 10.77 5.711 11.3 4.099 11.3 C 1.53 11.3 0 9.872 0 7.975 C 0 6.038 1.367 4.691 4.711 4.691 L 7.24 4.691 C 7.24 3.325 6.424 2.529 4.711 2.529 C 3.549 2.529 2.346 2.917 1.55 3.549 L 0.408 1.326 C 1.611 0.469 3.386 0 5.14 0 C 8.485 0.001 10.422 1.55 10.422 4.875 Z M 7.24 7.669 L 7.24 6.548 L 5.058 6.548 C 3.569 6.548 3.1 7.098 3.1 7.833 C 3.1 8.628 3.773 9.159 4.895 9.159 C 5.955 9.158 6.873 8.669 7.24 7.669 Z" fill="rgb(37,38,43)" fill-rule="nonzero"></path>
          </g><g transform="translate(97.129 11.924) scale(1.0000 1.0000)">
            <path d="M 6.812 0.065 L 6.812 3.002 C 6.547 2.982 6.343 2.961 6.098 2.961 C 4.344 2.961 3.182 4.739 3.182 5.793 L 3.182 10.973 L 0 10.973 L 0 0 L 3.039 0 L 3.039 1.448 C 3.814 0.388 5.119 0.065 6.812 0.065 Z" fill="rgb(37,38,43)" fill-rule="nonzero"></path>
          </g><g transform="translate(110.722 6.923) scale(1.0000 1.0000)">
            <path d="M 11.952 10.488 C 11.952 13.935 9.565 16.137 6.486 16.137 C 5.018 16.137 3.834 15.668 3.039 14.71 L 3.039 15.974 L 0 15.974 L 0 0 L 3.182 0 L 3.182 6.164 C 3.998 5.266 5.119 4.838 6.486 4.838 C 9.565 4.838 11.952 7.041 11.952 10.488 Z M 8.729 10.488 C 8.729 8.591 7.526 7.449 5.935 7.449 C 4.344 7.449 3.141 8.591 3.141 10.488 C 3.141 12.384 4.345 13.526 5.935 13.526 C 7.526 13.526 8.729 12.384 8.729 10.488 Z" fill="rgb(37,38,43)" fill-rule="nonzero"></path>
          </g><g transform="translate(124.575 11.760) scale(1.0000 1.0000)">
            <path d="M 10.422 4.875 L 10.422 11.137 L 7.444 11.137 L 7.444 9.77 C 6.853 10.77 5.711 11.3 4.099 11.3 C 1.53 11.3 0 9.872 0 7.975 C 0 6.038 1.367 4.691 4.711 4.691 L 7.24 4.691 C 7.24 3.325 6.424 2.529 4.711 2.529 C 3.549 2.529 2.346 2.917 1.55 3.549 L 0.408 1.326 C 1.611 0.469 3.386 0 5.14 0 C 8.485 0.001 10.422 1.55 10.422 4.875 Z M 7.24 7.669 L 7.24 6.548 L 5.058 6.548 C 3.569 6.548 3.1 7.098 3.1 7.833 C 3.1 8.628 3.773 9.159 4.895 9.159 C 5.955 9.158 6.873 8.669 7.24 7.669 Z" fill="rgb(37,38,43)" fill-rule="nonzero"></path>
          </g><g transform="translate(137.873 11.761) scale(1.0000 1.0000)">
            <path d="M 11.218 4.854 L 11.218 11.136 L 8.036 11.136 L 8.036 5.344 C 8.036 3.569 7.22 2.753 5.813 2.753 C 4.283 2.753 3.182 3.692 3.182 5.711 L 3.182 11.136 L 0 11.136 L 0 0.163 L 3.039 0.163 L 3.039 1.448 C 3.896 0.51 5.181 0 6.67 0 C 9.26 0 11.218 1.509 11.218 4.854 Z" fill="rgb(37,38,43)" fill-rule="nonzero"></path>
          </g><g transform="translate(151.966 11.924) scale(1.0000 1.0000)">
            <path d="M 4.711 6.67 L 3.182 8.179 L 3.182 10.973 L 0 10.973 L 0 0.049 L 3.182 0.049 L 3.182 4.405 L 7.832 0 L 11.626 0 L 7.057 4.65 L 12.034 10.973 L 8.179 10.973 L 4.711 6.67 Z" fill="rgb(37,38,43)" fill-rule="nonzero"></path>
          </g><g transform="translate(0.010 1.500) scale(1.0000 1.0000)">
                  <path d="M 0 0 L 0 5.398 L 0 10.762 L 0 16.125 L 5.399 16.125 L 5.399 10.762 L 5.399 5.398 L 5.399 0 L 0 0 Z" fill="rgb(37,38,43)" fill-rule="nonzero"></path>
                </g><g transform="translate(0.000 6.815) scale(1.0000 1.0000)">
                <path d="M 41.35 3.155 C 39.241 1.052 36.478 0 33.713 0 C 30.948 0 28.185 1.052 26.074 3.155 L 22.256 6.964 L 18.438 3.155 C 14.219 -1.052 7.381 -1.052 3.164 3.155 C -1.055 7.364 -1.055 14.184 3.164 18.391 C 7.381 22.598 14.219 22.598 18.438 18.391 L 21.315 15.522 L 18.438 10.773 L 22.256 14.583 L 26.074 18.391 C 30.295 22.598 37.132 22.598 41.35 18.391 C 45.568 14.185 45.568 7.364 41.35 3.155 Z M 14.619 14.583 C 13.599 15.601 12.243 16.161 10.8 16.161 C 9.356 16.161 8 15.601 6.981 14.583 C 5.961 13.565 5.4 12.212 5.4 10.773 C 5.4 9.334 5.96 7.983 6.981 6.964 C 8 5.948 9.356 5.387 10.8 5.387 C 12.242 5.387 13.599 5.948 14.619 6.964 L 18.438 10.773 L 14.619 14.583 Z M 37.531 14.583 C 36.511 15.601 35.155 16.161 33.712 16.161 C 32.27 16.161 30.913 15.601 29.893 14.583 L 26.074 10.773 L 29.893 6.964 C 30.913 5.948 32.27 5.387 33.712 5.387 C 35.154 5.387 36.511 5.948 37.531 6.964 C 38.551 7.983 39.114 9.334 39.114 10.773 C 39.114 12.212 38.551 13.565 37.531 14.583 Z" fill="rgb(37,38,43)" fill-rule="nonzero"></path>
              </g><g transform="translate(22.235 6.805) scale(1.0000 1.0000)">
              <path d="M 0 6.953 L 4.05 2.878 C 4.05 2.878 6.886 -0.001 11.478 0 C 13.771 0.001 16.719 0.775 19.115 3.169 C 19.115 3.169 23.107 6.759 22.151 12.461 C 22.151 12.461 21.672 16.938 17.617 19.688 C 16.631 20.356 12.344 22.906 7.128 20.647 C 7.128 20.647 17.513 17.621 16.834 10.285 C 16.539 7.113 13.74 5.472 11.647 5.409 C 11.647 5.409 9.388 5.244 7.659 6.984 L 3.849 10.791 L 0 6.953 Z" fill="rgb(37,38,43)" fill-rule="nonzero"></path>
            </g><g transform="translate(0.000 17.588) scale(1.0000 1.0000)">
              <path d="M 21.325 4.765 L 19.288 6.794 C 19.288 6.794 16.62 10.082 12.483 10.691 C 8.345 11.3 5.387 9.388 5.387 9.388 C 5.387 9.388 1.582 7.531 0.303 2.668 C 0.303 2.668 -0.008 1.606 0 0.027 C 0 0.027 4.309 5.389 10.772 5.389 C 10.772 5.389 12.845 5.526 14.597 3.852 L 18.438 0 L 21.325 4.765 Z" fill="rgb(37,38,43)" fill-rule="nonzero"></path>
            </g><g transform="translate(18.438 17.588) scale(1.0000 1.0000)">
              <path d="M 0 0 L 2.888 4.766 L 3.818 3.81 L 0 0 Z" fill="rgb(255,255,255)" fill-rule="nonzero"></path>
            </g></svg>